<svg width="92" height="92" viewBox="0 0 92 92" fill="none" xmlns="http://www.w3.org/2000/svg">
<g filter="url(#filter0_b_102_52)">
<circle cx="46" cy="46" r="46" fill="white" fill-opacity="0.32"/>
</g>
<path d="M76.3058 45.9999C76.3058 54.0375 73.1129 61.746 67.4294 67.4294C61.746 73.1129 54.0375 76.3058 45.9999 76.3058C37.9623 76.3058 30.2539 73.1129 24.5704 67.4294C18.887 61.746 15.694 54.0375 15.694 45.9999C15.694 37.9623 18.887 30.2539 24.5704 24.5704C30.2539 18.887 37.9623 15.694 45.9999 15.694C54.0375 15.694 61.746 18.887 67.4294 24.5704C73.1129 30.2539 76.3058 37.9623 76.3058 45.9999ZM43.3926 34.9875C43.1094 34.7859 42.7761 34.6661 42.4293 34.6412C42.0826 34.6164 41.7356 34.6875 41.4266 34.8467C41.1175 35.0059 40.8582 35.2472 40.6771 35.544C40.496 35.8408 40.4001 36.1817 40.3999 36.5293V55.4705C40.4001 55.8182 40.496 56.1591 40.6771 56.4559C40.8582 56.7527 41.1175 56.9939 41.4266 57.1531C41.7356 57.3124 42.0826 57.3835 42.4293 57.3586C42.7761 57.3338 43.1094 57.214 43.3926 57.0123L56.6514 47.5417C56.897 47.3665 57.0971 47.1352 57.2352 46.867C57.3733 46.5989 57.4453 46.3016 57.4453 45.9999C57.4453 45.6983 57.3733 45.401 57.2352 45.1328C57.0971 44.8647 56.897 44.6333 56.6514 44.4581L43.3926 34.9875Z" fill="white"/>
<defs>
<filter id="filter0_b_102_52" x="-14" y="-14" width="120" height="120" filterUnits="userSpaceOnUse" color-interpolation-filters="sRGB">
<feFlood flood-opacity="0" result="BackgroundImageFix"/>
<feGaussianBlur in="BackgroundImage" stdDeviation="7"/>
<feComposite in2="SourceAlpha" operator="in" result="effect1_backgroundBlur_102_52"/>
<feBlend mode="normal" in="SourceGraphic" in2="effect1_backgroundBlur_102_52" result="shape"/>
</filter>
</defs>
</svg>
