<svg width="99" height="35" viewBox="0 0 99 35" fill="none" xmlns="http://www.w3.org/2000/svg">
<path d="M4.368 24.448C7.088 27.168 9.808 28.528 12.528 28.528C13.936 28.528 15.056 28.208 15.888 27.568C16.752 26.896 17.184 26.048 17.184 25.024C17.184 23.968 16.672 23.088 15.648 22.384C14.624 21.648 13.376 21.008 11.904 20.464C10.464 19.92 9.024 19.312 7.584 18.64C6.144 17.936 4.912 16.944 3.888 15.664C2.864 14.384 2.352 12.832 2.352 11.008C2.352 8.128 3.552 5.648 5.952 3.568C8.352 1.456 11.2 0.399998 14.496 0.399998C16 0.399998 17.456 0.559998 18.864 0.879997C20.272 1.2 21.632 1.664 22.944 2.272L19.68 9.28C18.784 8.576 17.552 7.936 15.984 7.36C14.448 6.752 13.088 6.448 11.904 6.448C10.752 6.448 9.808 6.736 9.072 7.312C8.368 7.856 8.016 8.592 8.016 9.52C8.016 10.448 8.528 11.28 9.552 12.016C10.576 12.72 11.808 13.344 13.248 13.888C14.72 14.432 16.176 15.04 17.616 15.712C19.088 16.352 20.336 17.312 21.36 18.592C22.384 19.872 22.896 21.424 22.896 23.248C22.896 26.256 21.696 28.896 19.296 31.168C16.896 33.408 14.096 34.528 10.896 34.528C8.496 34.528 6.368 33.952 4.512 32.8C2.88 31.808 1.728 30.928 1.056 30.16L0.624 29.632L4.368 24.448ZM28.5086 24.448C31.2286 27.168 33.9486 28.528 36.6686 28.528C38.0766 28.528 39.1966 28.208 40.0286 27.568C40.8926 26.896 41.3246 26.048 41.3246 25.024C41.3246 23.968 40.8126 23.088 39.7886 22.384C38.7646 21.648 37.5166 21.008 36.0446 20.464C34.6046 19.92 33.1646 19.312 31.7246 18.64C30.2846 17.936 29.0526 16.944 28.0286 15.664C27.0046 14.384 26.4926 12.832 26.4926 11.008C26.4926 8.128 27.6926 5.648 30.0926 3.568C32.4926 1.456 35.3406 0.399998 38.6366 0.399998C40.1406 0.399998 41.5966 0.559998 43.0046 0.879997C44.4126 1.2 45.7726 1.664 47.0846 2.272L43.8206 9.28C42.9246 8.576 41.6926 7.936 40.1246 7.36C38.5886 6.752 37.2286 6.448 36.0446 6.448C34.8926 6.448 33.9486 6.736 33.2126 7.312C32.5086 7.856 32.1566 8.592 32.1566 9.52C32.1566 10.448 32.6686 11.28 33.6926 12.016C34.7166 12.72 35.9486 13.344 37.3886 13.888C38.8606 14.432 40.3166 15.04 41.7566 15.712C43.2286 16.352 44.4766 17.312 45.5006 18.592C46.5246 19.872 47.0366 21.424 47.0366 23.248C47.0366 26.256 45.8366 28.896 43.4366 31.168C41.0366 33.408 38.2366 34.528 35.0366 34.528C32.6366 34.528 30.5086 33.952 28.6526 32.8C27.0206 31.808 25.8686 30.928 25.1966 30.16L24.7646 29.632L28.5086 24.448ZM49.7213 30.784C49.7213 29.76 50.0893 28.864 50.8253 28.096C51.5933 27.296 52.5053 26.896 53.5613 26.896C55.6413 26.896 56.6813 27.952 56.6813 30.064C56.6813 31.28 56.2973 32.288 55.5293 33.088C54.7933 33.888 53.9133 34.288 52.8893 34.288C51.8973 34.288 51.1133 33.968 50.5373 33.328C49.9933 32.656 49.7213 31.808 49.7213 30.784ZM60.381 10.816L66.189 9.568C66.477 12.032 66.669 14.368 66.765 16.576C69.677 12.064 72.413 9.808 74.973 9.808L74.445 17.296C72.589 17.296 71.117 17.472 70.029 17.824C68.973 18.144 67.885 18.8 66.765 19.792V21.52L67.293 32.8L60.861 34L61.437 22.336C61.309 18.048 60.957 14.208 60.381 10.816ZM83.7784 34C82.0504 34 80.6424 33.44 79.5544 32.32C78.4984 31.168 77.9704 29.664 77.9704 27.808L78.2584 22.288L77.7304 10.768L84.1624 9.568L83.5384 24.16C83.5384 25.536 83.7784 26.544 84.2584 27.184C84.7704 27.824 85.5704 28.144 86.6584 28.144C87.7464 28.144 89.2504 27.6 91.1704 26.512V23.632L90.6424 11.008L97.1224 9.808L96.5464 21.808L96.5944 25.744C96.5944 27.792 97.1224 29.856 98.1784 31.936L93.1864 34.144C92.1304 32.064 91.4904 30.4 91.2664 29.152C88.3864 32.384 85.8904 34 83.7784 34Z" fill="white"/>
</svg>
